<svg width="25" height="19" viewBox="0 0 25 19" fill="none" xmlns="http://www.w3.org/2000/svg">
<path d="M24.0391 4.48438H21.4141V3.07812C21.4141 2.29688 21.1406 1.63281 20.5938 1.08594C20.0469 0.539062 19.3828 0.265625 18.6016 0.265625H15.7891C15.5234 0.265625 15.3008 0.355469 15.1211 0.535156C14.9414 0.714844 14.8516 0.9375 14.8516 1.20312C14.8516 1.46875 14.9414 1.69141 15.1211 1.87109C15.3008 2.05078 15.5234 2.14062 15.7891 2.14062H18.6016C18.8672 2.14062 19.0898 2.23047 19.2695 2.41016C19.4492 2.58984 19.5391 2.8125 19.5391 3.07812V4.48438H6.41406V3.07812C6.41406 2.8125 6.50391 2.58984 6.68359 2.41016C6.86328 2.23047 7.08594 2.14062 7.35156 2.14062H10.1641C10.4297 2.14062 10.6523 2.05078 10.832 1.87109C11.0117 1.69141 11.1016 1.46875 11.1016 1.20312C11.1016 0.9375 11.0117 0.714844 10.832 0.535156C10.6523 0.355469 10.4297 0.265625 10.1641 0.265625H7.35156C6.57031 0.265625 5.90625 0.539062 5.35938 1.08594C4.8125 1.63281 4.53906 2.29688 4.53906 3.07812V4.48438H1.91406C1.61719 4.48438 1.375 4.60156 1.1875 4.83594C1 5.07031 0.9375 5.33594 1 5.63281L3.85938 18.1016C3.90625 18.3203 4.01562 18.4961 4.1875 18.6289C4.35938 18.7617 4.55469 18.8281 4.77344 18.8281H21.1797C21.3984 18.8281 21.5938 18.7617 21.7656 18.6289C21.9375 18.4961 22.0469 18.3203 22.0938 18.1016L24.9531 5.63281C25.0156 5.33594 24.9531 5.07031 24.7656 4.83594C24.5781 4.60156 24.3359 4.48438 24.0391 4.48438ZM20.4297 16.9531H5.52344L3.08594 6.35938H22.8672L20.4297 16.9531ZM11.5703 9.3125V14C11.5703 14.2656 11.4805 14.4883 11.3008 14.668C11.1211 14.8477 10.8984 14.9375 10.6328 14.9375C10.3672 14.9375 10.1445 14.8477 9.96484 14.668C9.78516 14.4883 9.69531 14.2656 9.69531 14V9.3125C9.69531 9.04688 9.78516 8.82422 9.96484 8.64453C10.1445 8.46484 10.3672 8.375 10.6328 8.375C10.8984 8.375 11.1211 8.46484 11.3008 8.64453C11.4805 8.82422 11.5703 9.04688 11.5703 9.3125ZM16.2578 9.3125V14C16.2578 14.2656 16.168 14.4883 15.9883 14.668C15.8086 14.8477 15.5859 14.9375 15.3203 14.9375C15.0547 14.9375 14.832 14.8477 14.6523 14.668C14.4727 14.4883 14.3828 14.2656 14.3828 14V9.3125C14.3828 9.04688 14.4727 8.82422 14.6523 8.64453C14.832 8.46484 15.0547 8.375 15.3203 8.375C15.5859 8.375 15.8086 8.46484 15.9883 8.64453C16.168 8.82422 16.2578 9.04688 16.2578 9.3125Z" fill="#1B2336"/>
</svg>
